<?xml version="1.0" encoding="UTF-8"?>
<svg xmlns="http://www.w3.org/2000/svg" viewBox="0 0 64 64" width="64" height="64" fill="none">
  <defs>
    <linearGradient id="bg-atarilynx" x1="0" y1="0" x2="0" y2="1">
      <stop offset="0%" stop-color="#1a1a1a"></stop>
      <stop offset="100%" stop-color="#0a0a0a"></stop>
    </linearGradient>
    <filter id="glow-atarilynx" x="-50%" y="-50%" width="200%" height="200%">
      <feGaussianBlur stdDeviation="1.2" result="b"></feGaussianBlur>
      <feMerge><feMergeNode in="b"></feMergeNode><feMergeNode in="SourceGraphic"></feMergeNode></feMerge>
    </filter>
  </defs>
  
  <rect x="1" y="1" width="62" height="62" rx="10" fill="url(#bg-atarilynx)"></rect>
  
  <rect x="1" y="1" width="62" height="62" rx="10" fill="none" stroke="#ffea00" stroke-width="1.5" opacity=".9"></rect>
  <rect x="3" y="3" width="58" height="58" rx="8" fill="none" stroke="#ffea00" stroke-width=".5" opacity=".35"></rect>
  
  <circle cx="6" cy="6" r="1" fill="#ffea00" opacity=".6"></circle>
  <circle cx="58" cy="6" r="1" fill="#ffea00" opacity=".6"></circle>
  <circle cx="6" cy="58" r="1" fill="#ffea00" opacity=".6"></circle>
  <circle cx="58" cy="58" r="1" fill="#ffea00" opacity=".6"></circle>
  
  <g filter="url(#glow-atarilynx)">
    
    <path d="M32 14 L32 50 M24 20 L24 50 M40 20 L40 50 M32 14 Q24 14 22 22 M32 14 Q40 14 42 22" stroke="#ffea00" stroke-width="3" fill="none" stroke-linecap="round"></path>
  </g>
  
  <rect x="4" y="52" width="56" height="8" rx="2" fill="#000" opacity=".6"></rect>
  <text x="32" y="58" text-anchor="middle" font-family="ui-monospace, Menlo, monospace" font-size="5.5" font-weight="700" fill="#ffea00" letter-spacing="1">LYNX</text>
</svg>