<?xml version="1.0" encoding="UTF-8"?>
<svg xmlns="http://www.w3.org/2000/svg" viewBox="0 0 64 64" width="64" height="64" fill="none">
  <defs>
    <linearGradient id="bg-c64" x1="0" y1="0" x2="0" y2="1">
      <stop offset="0%" stop-color="#1a1a1a"></stop>
      <stop offset="100%" stop-color="#0a0a0a"></stop>
    </linearGradient>
    <filter id="glow-c64" x="-50%" y="-50%" width="200%" height="200%">
      <feGaussianBlur stdDeviation="1.2" result="b"></feGaussianBlur>
      <feMerge><feMergeNode in="b"></feMergeNode><feMergeNode in="SourceGraphic"></feMergeNode></feMerge>
    </filter>
  </defs>
  
  <rect x="1" y="1" width="62" height="62" rx="10" fill="url(#bg-c64)"></rect>
  
  <rect x="1" y="1" width="62" height="62" rx="10" fill="none" stroke="#8a72ff" stroke-width="1.5" opacity=".9"></rect>
  <rect x="3" y="3" width="58" height="58" rx="8" fill="none" stroke="#8a72ff" stroke-width=".5" opacity=".35"></rect>
  
  <circle cx="6" cy="6" r="1" fill="#8a72ff" opacity=".6"></circle>
  <circle cx="58" cy="6" r="1" fill="#8a72ff" opacity=".6"></circle>
  <circle cx="6" cy="58" r="1" fill="#8a72ff" opacity=".6"></circle>
  <circle cx="58" cy="58" r="1" fill="#8a72ff" opacity=".6"></circle>
  
  <g filter="url(#glow-c64)">
    
    <rect x="10" y="24" width="44" height="16" rx="2" fill="#8a72ff" stroke="#fff" stroke-width=".8"></rect>
    <g fill="#fff" opacity=".85">
      <rect x="14" y="28" width="3" height="3"></rect>
      <rect x="19" y="28" width="3" height="3"></rect>
      <rect x="24" y="28" width="3" height="3"></rect>
      <rect x="29" y="28" width="3" height="3"></rect>
      <rect x="34" y="28" width="3" height="3"></rect>
      <rect x="39" y="28" width="3" height="3"></rect>
      <rect x="44" y="28" width="3" height="3"></rect>
      <rect x="14" y="33" width="3" height="3"></rect>
      <rect x="19" y="33" width="3" height="3"></rect>
      <rect x="24" y="33" width="3" height="3"></rect>
      <rect x="29" y="33" width="3" height="3"></rect>
      <rect x="34" y="33" width="3" height="3"></rect>
      <rect x="39" y="33" width="3" height="3"></rect>
      <rect x="44" y="33" width="3" height="3"></rect>
    </g>
  </g>
  
  <rect x="4" y="52" width="56" height="8" rx="2" fill="#000" opacity=".6"></rect>
  <text x="32" y="58" text-anchor="middle" font-family="ui-monospace, Menlo, monospace" font-size="5.5" font-weight="700" fill="#8a72ff" letter-spacing="1">C64</text>
</svg>