<?xml version="1.0" encoding="UTF-8"?>
<svg xmlns="http://www.w3.org/2000/svg" viewBox="0 0 64 64" width="64" height="64" fill="none">
  <defs>
    <linearGradient id="bg-dreamcast" x1="0" y1="0" x2="0" y2="1">
      <stop offset="0%" stop-color="#1a1a1a"></stop>
      <stop offset="100%" stop-color="#0a0a0a"></stop>
    </linearGradient>
    <filter id="glow-dreamcast" x="-50%" y="-50%" width="200%" height="200%">
      <feGaussianBlur stdDeviation="1.2" result="b"></feGaussianBlur>
      <feMerge><feMergeNode in="b"></feMergeNode><feMergeNode in="SourceGraphic"></feMergeNode></feMerge>
    </filter>
  </defs>
  
  <rect x="1" y="1" width="62" height="62" rx="10" fill="url(#bg-dreamcast)"></rect>
  
  <rect x="1" y="1" width="62" height="62" rx="10" fill="none" stroke="#ff6b00" stroke-width="1.5" opacity=".9"></rect>
  <rect x="3" y="3" width="58" height="58" rx="8" fill="none" stroke="#ff6b00" stroke-width=".5" opacity=".35"></rect>
  
  <circle cx="6" cy="6" r="1" fill="#ff6b00" opacity=".6"></circle>
  <circle cx="58" cy="6" r="1" fill="#ff6b00" opacity=".6"></circle>
  <circle cx="6" cy="58" r="1" fill="#ff6b00" opacity=".6"></circle>
  <circle cx="58" cy="58" r="1" fill="#ff6b00" opacity=".6"></circle>
  
  <g filter="url(#glow-dreamcast)">
    
    <g transform="translate(32 32)">
      <path d="M-14 0 Q-14 -14 0 -14 Q14 -14 14 0 Q14 14 0 14 Q-14 14 -14 0 Z" fill="#fff" stroke="#000" stroke-width=".8"></path>
      <path d="M-8 -4 Q-8 -10 -2 -10 L10 -10 Q10 -4 4 -4 L-2 -4 Q-8 -4 -8 0 Q-8 4 -2 4 L10 4 Q10 10 4 10 L-2 10 Q-8 10 -8 4 Z" fill="#ff6b00"></path>
    </g>
  </g>
  
  <rect x="4" y="52" width="56" height="8" rx="2" fill="#000" opacity=".6"></rect>
  <text x="32" y="58" text-anchor="middle" font-family="ui-monospace, Menlo, monospace" font-size="5.5" font-weight="700" fill="#ff6b00" letter-spacing="1">DC</text>
</svg>