<?xml version="1.0" encoding="UTF-8"?>
<svg xmlns="http://www.w3.org/2000/svg" viewBox="0 0 64 64" width="64" height="64" fill="none">
  <defs>
    <linearGradient id="bg-gamegear" x1="0" y1="0" x2="0" y2="1">
      <stop offset="0%" stop-color="#1a1a1a"></stop>
      <stop offset="100%" stop-color="#0a0a0a"></stop>
    </linearGradient>
    <filter id="glow-gamegear" x="-50%" y="-50%" width="200%" height="200%">
      <feGaussianBlur stdDeviation="1.2" result="b"></feGaussianBlur>
      <feMerge><feMergeNode in="b"></feMergeNode><feMergeNode in="SourceGraphic"></feMergeNode></feMerge>
    </filter>
  </defs>
  
  <rect x="1" y="1" width="62" height="62" rx="10" fill="url(#bg-gamegear)"></rect>
  
  <rect x="1" y="1" width="62" height="62" rx="10" fill="none" stroke="#ff006e" stroke-width="1.5" opacity=".9"></rect>
  <rect x="3" y="3" width="58" height="58" rx="8" fill="none" stroke="#ff006e" stroke-width=".5" opacity=".35"></rect>
  
  <circle cx="6" cy="6" r="1" fill="#ff006e" opacity=".6"></circle>
  <circle cx="58" cy="6" r="1" fill="#ff006e" opacity=".6"></circle>
  <circle cx="6" cy="58" r="1" fill="#ff006e" opacity=".6"></circle>
  <circle cx="58" cy="58" r="1" fill="#ff006e" opacity=".6"></circle>
  
  <g filter="url(#glow-gamegear)">
    
    <path d="M10 24 L10 40 Q10 44 14 44 L20 44 L20 48 Q20 50 22 50 L42 50 Q44 50 44 48 L44 44 L50 44 Q54 44 54 40 L54 24 Q54 20 50 20 L14 20 Q10 20 10 24 Z" fill="#ff006e" stroke="#000" stroke-width="1"></path>
    <rect x="18" y="25" width="28" height="14" fill="#0a0a0a"></rect>
    <rect x="19" y="26" width="26" height="12" fill="#1a4d2e"></rect>
    <circle cx="13" cy="32" r="2" fill="#000"></circle>
    <circle cx="51" cy="32" r="2" fill="#000"></circle>
  </g>
  
  <rect x="4" y="52" width="56" height="8" rx="2" fill="#000" opacity=".6"></rect>
  <text x="32" y="58" text-anchor="middle" font-family="ui-monospace, Menlo, monospace" font-size="5.5" font-weight="700" fill="#ff006e" letter-spacing="1">GG</text>
</svg>