<?xml version="1.0" encoding="UTF-8"?>
<svg xmlns="http://www.w3.org/2000/svg" viewBox="0 0 64 64" width="64" height="64" fill="none">
  <defs>
    <linearGradient id="bg-mastersystem" x1="0" y1="0" x2="0" y2="1">
      <stop offset="0%" stop-color="#1a1a1a"></stop>
      <stop offset="100%" stop-color="#0a0a0a"></stop>
    </linearGradient>
    <filter id="glow-mastersystem" x="-50%" y="-50%" width="200%" height="200%">
      <feGaussianBlur stdDeviation="1.2" result="b"></feGaussianBlur>
      <feMerge><feMergeNode in="b"></feMergeNode><feMergeNode in="SourceGraphic"></feMergeNode></feMerge>
    </filter>
  </defs>
  
  <rect x="1" y="1" width="62" height="62" rx="10" fill="url(#bg-mastersystem)"></rect>
  
  <rect x="1" y="1" width="62" height="62" rx="10" fill="none" stroke="#0066cc" stroke-width="1.5" opacity=".9"></rect>
  <rect x="3" y="3" width="58" height="58" rx="8" fill="none" stroke="#0066cc" stroke-width=".5" opacity=".35"></rect>
  
  <circle cx="6" cy="6" r="1" fill="#0066cc" opacity=".6"></circle>
  <circle cx="58" cy="6" r="1" fill="#0066cc" opacity=".6"></circle>
  <circle cx="6" cy="58" r="1" fill="#0066cc" opacity=".6"></circle>
  <circle cx="58" cy="58" r="1" fill="#0066cc" opacity=".6"></circle>
  
  <g filter="url(#glow-mastersystem)">
    
    <rect x="12" y="18" width="40" height="28" rx="2" fill="#0066cc" stroke="#fff" stroke-width="1"></rect>
    <rect x="16" y="22" width="32" height="14" fill="#000"></rect>
    <rect x="18" y="24" width="6" height="2" fill="#ff006e"></rect>
    <rect x="18" y="28" width="10" height="2" fill="#00f0ff"></rect>
    <rect x="18" y="32" width="8" height="2" fill="#ffea00"></rect>
    <rect x="16" y="40" width="32" height="3" fill="#222"></rect>
  </g>
  
  <rect x="4" y="52" width="56" height="8" rx="2" fill="#000" opacity=".6"></rect>
  <text x="32" y="58" text-anchor="middle" font-family="ui-monospace, Menlo, monospace" font-size="5.5" font-weight="700" fill="#0066cc" letter-spacing="1">SMS</text>
</svg>