<?xml version="1.0" encoding="UTF-8"?>
<svg xmlns="http://www.w3.org/2000/svg" viewBox="0 0 64 64" width="64" height="64" fill="none">
  <defs>
    <linearGradient id="bg-n64" x1="0" y1="0" x2="0" y2="1">
      <stop offset="0%" stop-color="#1a1a1a"></stop>
      <stop offset="100%" stop-color="#0a0a0a"></stop>
    </linearGradient>
    <filter id="glow-n64" x="-50%" y="-50%" width="200%" height="200%">
      <feGaussianBlur stdDeviation="1.2" result="b"></feGaussianBlur>
      <feMerge><feMergeNode in="b"></feMergeNode><feMergeNode in="SourceGraphic"></feMergeNode></feMerge>
    </filter>
  </defs>
  
  <rect x="1" y="1" width="62" height="62" rx="10" fill="url(#bg-n64)"></rect>
  
  <rect x="1" y="1" width="62" height="62" rx="10" fill="none" stroke="#e60012" stroke-width="1.5" opacity=".9"></rect>
  <rect x="3" y="3" width="58" height="58" rx="8" fill="none" stroke="#e60012" stroke-width=".5" opacity=".35"></rect>
  
  <circle cx="6" cy="6" r="1" fill="#e60012" opacity=".6"></circle>
  <circle cx="58" cy="6" r="1" fill="#e60012" opacity=".6"></circle>
  <circle cx="6" cy="58" r="1" fill="#e60012" opacity=".6"></circle>
  <circle cx="58" cy="58" r="1" fill="#e60012" opacity=".6"></circle>
  
  <g filter="url(#glow-n64)">
    
    <path d="M32 14 L38 22 L50 22 L44 32 L50 42 L38 42 L32 50 L26 42 L14 42 L20 32 L14 22 L26 22 Z" fill="#e60012" stroke="#fff" stroke-width="1.5"></path>
    <circle cx="32" cy="32" r="4" fill="#fff"></circle>
  </g>
  
  <rect x="4" y="52" width="56" height="8" rx="2" fill="#000" opacity=".6"></rect>
  <text x="32" y="58" text-anchor="middle" font-family="ui-monospace, Menlo, monospace" font-size="5.5" font-weight="700" fill="#e60012" letter-spacing="1">64-BIT</text>
</svg>