<?xml version="1.0" encoding="UTF-8"?>
<svg xmlns="http://www.w3.org/2000/svg" viewBox="0 0 64 64" width="64" height="64" fill="none">
  <defs>
    <linearGradient id="bg-nds" x1="0" y1="0" x2="0" y2="1">
      <stop offset="0%" stop-color="#1a1a1a"></stop>
      <stop offset="100%" stop-color="#0a0a0a"></stop>
    </linearGradient>
    <filter id="glow-nds" x="-50%" y="-50%" width="200%" height="200%">
      <feGaussianBlur stdDeviation="1.2" result="b"></feGaussianBlur>
      <feMerge><feMergeNode in="b"></feMergeNode><feMergeNode in="SourceGraphic"></feMergeNode></feMerge>
    </filter>
  </defs>
  
  <rect x="1" y="1" width="62" height="62" rx="10" fill="url(#bg-nds)"></rect>
  
  <rect x="1" y="1" width="62" height="62" rx="10" fill="none" stroke="#00b4d8" stroke-width="1.5" opacity=".9"></rect>
  <rect x="3" y="3" width="58" height="58" rx="8" fill="none" stroke="#00b4d8" stroke-width=".5" opacity=".35"></rect>
  
  <circle cx="6" cy="6" r="1" fill="#00b4d8" opacity=".6"></circle>
  <circle cx="58" cy="6" r="1" fill="#00b4d8" opacity=".6"></circle>
  <circle cx="6" cy="58" r="1" fill="#00b4d8" opacity=".6"></circle>
  <circle cx="58" cy="58" r="1" fill="#00b4d8" opacity=".6"></circle>
  
  <g filter="url(#glow-nds)">
    
    <rect x="12" y="14" width="40" height="20" rx="2" fill="#00b4d8" stroke="#fff" stroke-width="1"></rect>
    <rect x="12" y="32" width="40" height="20" rx="2" fill="#00b4d8" stroke="#fff" stroke-width="1"></rect>
    <rect x="16" y="17" width="32" height="13" fill="#0a0a2e"></rect>
    <rect x="16" y="35" width="32" height="13" fill="#0a0a2e"></rect>
    <rect x="12" y="32" width="40" height="2" fill="#000"></rect>
  </g>
  
  <rect x="4" y="52" width="56" height="8" rx="2" fill="#000" opacity=".6"></rect>
  <text x="32" y="58" text-anchor="middle" font-family="ui-monospace, Menlo, monospace" font-size="5.5" font-weight="700" fill="#00b4d8" letter-spacing="1">DS</text>
</svg>