<?xml version="1.0" encoding="UTF-8"?>
<svg xmlns="http://www.w3.org/2000/svg" viewBox="0 0 64 64" width="64" height="64" fill="none">
  <defs>
    <linearGradient id="bg-nes" x1="0" y1="0" x2="0" y2="1">
      <stop offset="0%" stop-color="#1a1a1a"></stop>
      <stop offset="100%" stop-color="#0a0a0a"></stop>
    </linearGradient>
    <filter id="glow-nes" x="-50%" y="-50%" width="200%" height="200%">
      <feGaussianBlur stdDeviation="1.2" result="b"></feGaussianBlur>
      <feMerge><feMergeNode in="b"></feMergeNode><feMergeNode in="SourceGraphic"></feMergeNode></feMerge>
    </filter>
  </defs>
  
  <rect x="1" y="1" width="62" height="62" rx="10" fill="url(#bg-nes)"></rect>
  
  <rect x="1" y="1" width="62" height="62" rx="10" fill="none" stroke="#e60012" stroke-width="1.5" opacity=".9"></rect>
  <rect x="3" y="3" width="58" height="58" rx="8" fill="none" stroke="#e60012" stroke-width=".5" opacity=".35"></rect>
  
  <circle cx="6" cy="6" r="1" fill="#e60012" opacity=".6"></circle>
  <circle cx="58" cy="6" r="1" fill="#e60012" opacity=".6"></circle>
  <circle cx="6" cy="58" r="1" fill="#e60012" opacity=".6"></circle>
  <circle cx="58" cy="58" r="1" fill="#e60012" opacity=".6"></circle>
  
  <g filter="url(#glow-nes)">
    
    <rect x="14" y="28" width="36" height="18" rx="2" fill="#e60012" stroke="#000" stroke-width="1.5"></rect>
    <rect x="18" y="32" width="6" height="2" fill="#fff"></rect>
    <rect x="20" y="30" width="2" height="6" fill="#fff"></rect>
    <circle cx="38" cy="37" r="2" fill="#b92b27"></circle>
    <circle cx="44" cy="37" r="2" fill="#b92b27"></circle>
    <rect x="28" y="36" width="6" height="2" fill="#fff"></rect>
  </g>
  
  <rect x="4" y="52" width="56" height="8" rx="2" fill="#000" opacity=".6"></rect>
  <text x="32" y="58" text-anchor="middle" font-family="ui-monospace, Menlo, monospace" font-size="5.5" font-weight="700" fill="#e60012" letter-spacing="1">8-BIT</text>
</svg>