<?xml version="1.0" encoding="UTF-8"?>
<svg xmlns="http://www.w3.org/2000/svg" viewBox="0 0 64 64" width="64" height="64" fill="none">
  <defs>
    <linearGradient id="bg-snes" x1="0" y1="0" x2="0" y2="1">
      <stop offset="0%" stop-color="#1a1a1a"></stop>
      <stop offset="100%" stop-color="#0a0a0a"></stop>
    </linearGradient>
    <filter id="glow-snes" x="-50%" y="-50%" width="200%" height="200%">
      <feGaussianBlur stdDeviation="1.2" result="b"></feGaussianBlur>
      <feMerge><feMergeNode in="b"></feMergeNode><feMergeNode in="SourceGraphic"></feMergeNode></feMerge>
    </filter>
  </defs>
  
  <rect x="1" y="1" width="62" height="62" rx="10" fill="url(#bg-snes)"></rect>
  
  <rect x="1" y="1" width="62" height="62" rx="10" fill="none" stroke="#5a4fcf" stroke-width="1.5" opacity=".9"></rect>
  <rect x="3" y="3" width="58" height="58" rx="8" fill="none" stroke="#5a4fcf" stroke-width=".5" opacity=".35"></rect>
  
  <circle cx="6" cy="6" r="1" fill="#5a4fcf" opacity=".6"></circle>
  <circle cx="58" cy="6" r="1" fill="#5a4fcf" opacity=".6"></circle>
  <circle cx="6" cy="58" r="1" fill="#5a4fcf" opacity=".6"></circle>
  <circle cx="58" cy="58" r="1" fill="#5a4fcf" opacity=".6"></circle>
  
  <g filter="url(#glow-snes)">
    
    <path d="M14 34 Q14 26 22 26 L42 26 Q50 26 50 34 Q50 44 42 44 L22 44 Q14 44 14 34 Z" fill="#5a4fcf" stroke="#fff" stroke-width="1"></path>
    <circle cx="41" cy="32" r="2" fill="#7fd"></circle>
    <circle cx="45" cy="36" r="2" fill="#ff9"></circle>
    <circle cx="41" cy="40" r="2" fill="#f99"></circle>
    <circle cx="37" cy="36" r="2" fill="#9bf"></circle>
    <rect x="20" y="34" width="6" height="2" fill="#fff"></rect>
    <rect x="22" y="32" width="2" height="6" fill="#fff"></rect>
  </g>
  
  <rect x="4" y="52" width="56" height="8" rx="2" fill="#000" opacity=".6"></rect>
  <text x="32" y="58" text-anchor="middle" font-family="ui-monospace, Menlo, monospace" font-size="5.5" font-weight="700" fill="#5a4fcf" letter-spacing="1">16-BIT</text>
</svg>