<?xml version="1.0" encoding="utf-8"?>
<svg xmlns="http://www.w3.org/2000/svg" viewBox="0 0 720 140" version="1.1">
  <g fill="#ffffff">
    <path d="M 70 30 C 55 30 42 38 35 50 C 30 58 28 68 30 78 C 32 88 38 96 46 102 C 52 106 58 108 64 108 L 64 100 L 80 100 C 86 100 92 96 96 90 L 100 84 L 108 90 C 112 92 116 92 120 90 L 124 86 C 122 82 116 78 110 78 C 106 78 102 80 100 84 L 92 78 C 90 72 84 68 78 68 L 70 68 L 70 60 C 78 60 86 62 92 66 L 96 62 C 96 56 92 50 86 46 C 80 42 74 40 70 40 Z M 56 56 C 60 56 64 60 64 64 C 64 68 60 72 56 72 C 52 72 48 68 48 64 C 48 60 52 56 56 56 Z"/>
  </g>
  <text x="160" y="92" font-family="'Impact','Arial Black','Helvetica Neue',sans-serif" font-weight="900" font-size="76" fill="#ffffff" letter-spacing="3">TEKNOPARROT</text>
</svg>
