<svg xmlns="http://www.w3.org/2000/svg" viewBox="0 0 24 24" fill="currentColor">
  <!-- Xbox / Game Pass logo: sphere with bold X -->
  <path d="M12 2C6.477 2 2 6.477 2 12s4.477 10 10 10 10-4.477 10-10S17.523 2 12 2zm0 2c1.87 0 3.6.64 4.97 1.7-1.22-.15-3.05.68-4.97 2.87C10 6.38 8.25 5.55 7.03 5.7A7.97 7.97 0 0 1 12 4zM5.7 7.03C5.55 8.25 6.38 10 8.58 12c-2.2 1.98-3.04 3.73-2.88 4.96A7.97 7.97 0 0 1 4 12c0-1.87.64-3.6 1.7-4.97zm12.6 0A7.97 7.97 0 0 1 20 12a7.97 7.97 0 0 1-1.7 4.97c.15-1.22-.68-3.05-2.87-4.97 2.2-1.98 3.03-3.73 2.87-4.97zM12 9.58c.85.96 1.6 2.04 2 2.42-.4.38-1.15 1.46-2 2.42-.85-.96-1.6-2.04-2-2.42.4-.38 1.15-1.46 2-2.42zm-5.97 7.4C7.25 17.62 9 16.79 12 14.6c2.95 2.17 4.7 3 5.97 2.87A7.97 7.97 0 0 1 12 20a7.97 7.97 0 0 1-5.97-3.02z"/>
</svg>
