<svg xmlns="http://www.w3.org/2000/svg" viewBox="0 0 361 361">
  <g fill="#fff">
    <path d="M35.28 158.41c-13.59 0-24.59 11.01-24.59 24.59v88.51c0 13.59 11 24.59 24.59 24.59s24.59-11 24.59-24.59v-88.51c0-13.59-11-24.59-24.59-24.59zm290.44 0c-13.59 0-24.59 11.01-24.59 24.59v88.51c0 13.59 11 24.59 24.59 24.59s24.59-11 24.59-24.59v-88.51c0-13.59-11-24.59-24.59-24.59z"></path>
    <path d="M292.17 153.44v134.19c0 12.3-9.98 22.28-22.28 22.28h-14.81v44.8c0 13.59-11.01 24.59-24.59 24.59-13.59 0-24.59-11-24.59-24.59v-44.8h-29.8v44.8c0 13.59-11.01 24.59-24.59 24.59s-24.59-11-24.59-24.59v-44.8H112.1c-12.3 0-22.28-9.98-22.28-22.28V153.44h202.35z"></path>
    <path d="M289.33 133.35c-1.81-44.32-29.5-84.23-70.77-101.98l14.85-27.32c2.09-3.84.67-8.64-3.17-10.73-3.84-2.09-8.64-.67-10.73 3.17l-15.54 28.58c-12.3-4.14-25.27-6.39-38.65-6.39s-26.35 2.25-38.65 6.39L111.13 0c-2.09-3.84-6.89-5.26-10.73-3.17-3.84 2.09-5.27 6.89-3.17 10.73l14.85 27.32c-41.27 17.75-68.96 57.66-70.77 101.98h248.02zM143.7 90.41c-6.67 0-12.08-5.41-12.08-12.08s5.41-12.08 12.08-12.08 12.08 5.41 12.08 12.08-5.41 12.08-12.08 12.08zm73.6 0c-6.67 0-12.08-5.41-12.08-12.08s5.41-12.08 12.08-12.08 12.08 5.41 12.08 12.08-5.41 12.08-12.08 12.08z"></path>
  </g>
</svg>